<?xml version="1.0" encoding="utf-8" standalone="no"?>
<!DOCTYPE svg PUBLIC "-//W3C//DTD SVG 1.1//EN"
  "http://www.w3.org/Graphics/SVG/1.1/DTD/svg11.dtd">
<!-- Created with matplotlib (https://matplotlib.org/) -->
<svg height="248.518125pt" version="1.1" viewBox="0 0 380.482813 248.518125" width="380.482813pt" xmlns="http://www.w3.org/2000/svg" xmlns:xlink="http://www.w3.org/1999/xlink">
 <metadata>
  <rdf:RDF xmlns:cc="http://creativecommons.org/ns#" xmlns:dc="http://purl.org/dc/elements/1.1/" xmlns:rdf="http://www.w3.org/1999/02/22-rdf-syntax-ns#">
   <cc:Work>
    <dc:type rdf:resource="http://purl.org/dc/dcmitype/StillImage"/>
    <dc:date>2022-09-21T23:21:45.195052</dc:date>
    <dc:format>image/svg+xml</dc:format>
    <dc:creator>
     <cc:Agent>
      <dc:title>Matplotlib v3.3.4, https://matplotlib.org/</dc:title>
     </cc:Agent>
    </dc:creator>
   </cc:Work>
  </rdf:RDF>
 </metadata>
 <defs>
  <style type="text/css">*{stroke-linecap:butt;stroke-linejoin:round;}</style>
 </defs>
 <g id="figure_1">
  <g id="patch_1">
   <path d="M -0 248.518125 
L 380.482813 248.518125 
L 380.482813 0 
L -0 0 
z
" style="fill:none;"/>
  </g>
  <g id="axes_1">
   <g id="patch_2">
    <path d="M 38.482813 224.64 
L 373.282813 224.64 
L 373.282813 7.2 
L 38.482813 7.2 
z
" style="fill:#ffffff;"/>
   </g>
   <g id="matplotlib.axis_1">
    <g id="xtick_1">
     <g id="line2d_1">
      <defs>
       <path d="M 0 0 
L 0 3.5 
" id="mcacb19c1db" style="stroke:#000000;stroke-width:0.8;"/>
      </defs>
      <g>
       <use style="stroke:#000000;stroke-width:0.8;" x="53.700994" xlink:href="#mcacb19c1db" y="224.64"/>
      </g>
     </g>
     <g id="text_1">
      <!-- 0 -->
      <g transform="translate(50.519744 239.238437)scale(0.1 -0.1)">
       <defs>
        <path d="M 31.78125 66.40625 
Q 24.171875 66.40625 20.328125 58.90625 
Q 16.5 51.421875 16.5 36.375 
Q 16.5 21.390625 20.328125 13.890625 
Q 24.171875 6.390625 31.78125 6.390625 
Q 39.453125 6.390625 43.28125 13.890625 
Q 47.125 21.390625 47.125 36.375 
Q 47.125 51.421875 43.28125 58.90625 
Q 39.453125 66.40625 31.78125 66.40625 
z
M 31.78125 74.21875 
Q 44.046875 74.21875 50.515625 64.515625 
Q 56.984375 54.828125 56.984375 36.375 
Q 56.984375 17.96875 50.515625 8.265625 
Q 44.046875 -1.421875 31.78125 -1.421875 
Q 19.53125 -1.421875 13.0625 8.265625 
Q 6.59375 17.96875 6.59375 36.375 
Q 6.59375 54.828125 13.0625 64.515625 
Q 19.53125 74.21875 31.78125 74.21875 
z
" id="DejaVuSans-48"/>
       </defs>
       <use xlink:href="#DejaVuSans-48"/>
      </g>
     </g>
    </g>
    <g id="xtick_2">
     <g id="line2d_2">
      <g>
       <use style="stroke:#000000;stroke-width:0.8;" x="104.428267" xlink:href="#mcacb19c1db" y="224.64"/>
      </g>
     </g>
     <g id="text_2">
      <!-- 1 -->
      <g transform="translate(101.247017 239.238437)scale(0.1 -0.1)">
       <defs>
        <path d="M 12.40625 8.296875 
L 28.515625 8.296875 
L 28.515625 63.921875 
L 10.984375 60.40625 
L 10.984375 69.390625 
L 28.421875 72.90625 
L 38.28125 72.90625 
L 38.28125 8.296875 
L 54.390625 8.296875 
L 54.390625 0 
L 12.40625 0 
z
" id="DejaVuSans-49"/>
       </defs>
       <use xlink:href="#DejaVuSans-49"/>
      </g>
     </g>
    </g>
    <g id="xtick_3">
     <g id="line2d_3">
      <g>
       <use style="stroke:#000000;stroke-width:0.8;" x="155.15554" xlink:href="#mcacb19c1db" y="224.64"/>
      </g>
     </g>
     <g id="text_3">
      <!-- 2 -->
      <g transform="translate(151.97429 239.238437)scale(0.1 -0.1)">
       <defs>
        <path d="M 19.1875 8.296875 
L 53.609375 8.296875 
L 53.609375 0 
L 7.328125 0 
L 7.328125 8.296875 
Q 12.9375 14.109375 22.625 23.890625 
Q 32.328125 33.6875 34.8125 36.53125 
Q 39.546875 41.84375 41.421875 45.53125 
Q 43.3125 49.21875 43.3125 52.78125 
Q 43.3125 58.59375 39.234375 62.25 
Q 35.15625 65.921875 28.609375 65.921875 
Q 23.96875 65.921875 18.8125 64.3125 
Q 13.671875 62.703125 7.8125 59.421875 
L 7.8125 69.390625 
Q 13.765625 71.78125 18.9375 73 
Q 24.125 74.21875 28.421875 74.21875 
Q 39.75 74.21875 46.484375 68.546875 
Q 53.21875 62.890625 53.21875 53.421875 
Q 53.21875 48.921875 51.53125 44.890625 
Q 49.859375 40.875 45.40625 35.40625 
Q 44.1875 33.984375 37.640625 27.21875 
Q 31.109375 20.453125 19.1875 8.296875 
z
" id="DejaVuSans-50"/>
       </defs>
       <use xlink:href="#DejaVuSans-50"/>
      </g>
     </g>
    </g>
    <g id="xtick_4">
     <g id="line2d_4">
      <g>
       <use style="stroke:#000000;stroke-width:0.8;" x="205.882812" xlink:href="#mcacb19c1db" y="224.64"/>
      </g>
     </g>
     <g id="text_4">
      <!-- 3 -->
      <g transform="translate(202.701562 239.238437)scale(0.1 -0.1)">
       <defs>
        <path d="M 40.578125 39.3125 
Q 47.65625 37.796875 51.625 33 
Q 55.609375 28.21875 55.609375 21.1875 
Q 55.609375 10.40625 48.1875 4.484375 
Q 40.765625 -1.421875 27.09375 -1.421875 
Q 22.515625 -1.421875 17.65625 -0.515625 
Q 12.796875 0.390625 7.625 2.203125 
L 7.625 11.71875 
Q 11.71875 9.328125 16.59375 8.109375 
Q 21.484375 6.890625 26.8125 6.890625 
Q 36.078125 6.890625 40.9375 10.546875 
Q 45.796875 14.203125 45.796875 21.1875 
Q 45.796875 27.640625 41.28125 31.265625 
Q 36.765625 34.90625 28.71875 34.90625 
L 20.21875 34.90625 
L 20.21875 43.015625 
L 29.109375 43.015625 
Q 36.375 43.015625 40.234375 45.921875 
Q 44.09375 48.828125 44.09375 54.296875 
Q 44.09375 59.90625 40.109375 62.90625 
Q 36.140625 65.921875 28.71875 65.921875 
Q 24.65625 65.921875 20.015625 65.03125 
Q 15.375 64.15625 9.8125 62.3125 
L 9.8125 71.09375 
Q 15.4375 72.65625 20.34375 73.4375 
Q 25.25 74.21875 29.59375 74.21875 
Q 40.828125 74.21875 47.359375 69.109375 
Q 53.90625 64.015625 53.90625 55.328125 
Q 53.90625 49.265625 50.4375 45.09375 
Q 46.96875 40.921875 40.578125 39.3125 
z
" id="DejaVuSans-51"/>
       </defs>
       <use xlink:href="#DejaVuSans-51"/>
      </g>
     </g>
    </g>
    <g id="xtick_5">
     <g id="line2d_5">
      <g>
       <use style="stroke:#000000;stroke-width:0.8;" x="256.610085" xlink:href="#mcacb19c1db" y="224.64"/>
      </g>
     </g>
     <g id="text_5">
      <!-- 4 -->
      <g transform="translate(253.428835 239.238437)scale(0.1 -0.1)">
       <defs>
        <path d="M 37.796875 64.3125 
L 12.890625 25.390625 
L 37.796875 25.390625 
z
M 35.203125 72.90625 
L 47.609375 72.90625 
L 47.609375 25.390625 
L 58.015625 25.390625 
L 58.015625 17.1875 
L 47.609375 17.1875 
L 47.609375 0 
L 37.796875 0 
L 37.796875 17.1875 
L 4.890625 17.1875 
L 4.890625 26.703125 
z
" id="DejaVuSans-52"/>
       </defs>
       <use xlink:href="#DejaVuSans-52"/>
      </g>
     </g>
    </g>
    <g id="xtick_6">
     <g id="line2d_6">
      <g>
       <use style="stroke:#000000;stroke-width:0.8;" x="307.337358" xlink:href="#mcacb19c1db" y="224.64"/>
      </g>
     </g>
     <g id="text_6">
      <!-- 5 -->
      <g transform="translate(304.156108 239.238437)scale(0.1 -0.1)">
       <defs>
        <path d="M 10.796875 72.90625 
L 49.515625 72.90625 
L 49.515625 64.59375 
L 19.828125 64.59375 
L 19.828125 46.734375 
Q 21.96875 47.46875 24.109375 47.828125 
Q 26.265625 48.1875 28.421875 48.1875 
Q 40.625 48.1875 47.75 41.5 
Q 54.890625 34.8125 54.890625 23.390625 
Q 54.890625 11.625 47.5625 5.09375 
Q 40.234375 -1.421875 26.90625 -1.421875 
Q 22.3125 -1.421875 17.546875 -0.640625 
Q 12.796875 0.140625 7.71875 1.703125 
L 7.71875 11.625 
Q 12.109375 9.234375 16.796875 8.0625 
Q 21.484375 6.890625 26.703125 6.890625 
Q 35.15625 6.890625 40.078125 11.328125 
Q 45.015625 15.765625 45.015625 23.390625 
Q 45.015625 31 40.078125 35.4375 
Q 35.15625 39.890625 26.703125 39.890625 
Q 22.75 39.890625 18.8125 39.015625 
Q 14.890625 38.140625 10.796875 36.28125 
z
" id="DejaVuSans-53"/>
       </defs>
       <use xlink:href="#DejaVuSans-53"/>
      </g>
     </g>
    </g>
    <g id="xtick_7">
     <g id="line2d_7">
      <g>
       <use style="stroke:#000000;stroke-width:0.8;" x="358.064631" xlink:href="#mcacb19c1db" y="224.64"/>
      </g>
     </g>
     <g id="text_7">
      <!-- 6 -->
      <g transform="translate(354.883381 239.238437)scale(0.1 -0.1)">
       <defs>
        <path d="M 33.015625 40.375 
Q 26.375 40.375 22.484375 35.828125 
Q 18.609375 31.296875 18.609375 23.390625 
Q 18.609375 15.53125 22.484375 10.953125 
Q 26.375 6.390625 33.015625 6.390625 
Q 39.65625 6.390625 43.53125 10.953125 
Q 47.40625 15.53125 47.40625 23.390625 
Q 47.40625 31.296875 43.53125 35.828125 
Q 39.65625 40.375 33.015625 40.375 
z
M 52.59375 71.296875 
L 52.59375 62.3125 
Q 48.875 64.0625 45.09375 64.984375 
Q 41.3125 65.921875 37.59375 65.921875 
Q 27.828125 65.921875 22.671875 59.328125 
Q 17.53125 52.734375 16.796875 39.40625 
Q 19.671875 43.65625 24.015625 45.921875 
Q 28.375 48.1875 33.59375 48.1875 
Q 44.578125 48.1875 50.953125 41.515625 
Q 57.328125 34.859375 57.328125 23.390625 
Q 57.328125 12.15625 50.6875 5.359375 
Q 44.046875 -1.421875 33.015625 -1.421875 
Q 20.359375 -1.421875 13.671875 8.265625 
Q 6.984375 17.96875 6.984375 36.375 
Q 6.984375 53.65625 15.1875 63.9375 
Q 23.390625 74.21875 37.203125 74.21875 
Q 40.921875 74.21875 44.703125 73.484375 
Q 48.484375 72.75 52.59375 71.296875 
z
" id="DejaVuSans-54"/>
       </defs>
       <use xlink:href="#DejaVuSans-54"/>
      </g>
     </g>
    </g>
   </g>
   <g id="matplotlib.axis_2">
    <g id="ytick_1">
     <g id="line2d_8">
      <defs>
       <path d="M 0 0 
L -3.5 0 
" id="m64986db8e4" style="stroke:#000000;stroke-width:0.8;"/>
      </defs>
      <g>
       <use style="stroke:#000000;stroke-width:0.8;" x="38.482813" xlink:href="#m64986db8e4" y="195.976222"/>
      </g>
     </g>
     <g id="text_8">
      <!-- −1.0 -->
      <g transform="translate(7.2 199.775441)scale(0.1 -0.1)">
       <defs>
        <path d="M 10.59375 35.5 
L 73.1875 35.5 
L 73.1875 27.203125 
L 10.59375 27.203125 
z
" id="DejaVuSans-8722"/>
        <path d="M 10.6875 12.40625 
L 21 12.40625 
L 21 0 
L 10.6875 0 
z
" id="DejaVuSans-46"/>
       </defs>
       <use xlink:href="#DejaVuSans-8722"/>
       <use x="83.789062" xlink:href="#DejaVuSans-49"/>
       <use x="147.412109" xlink:href="#DejaVuSans-46"/>
       <use x="179.199219" xlink:href="#DejaVuSans-48"/>
      </g>
     </g>
    </g>
    <g id="ytick_2">
     <g id="line2d_9">
      <g>
       <use style="stroke:#000000;stroke-width:0.8;" x="38.482813" xlink:href="#m64986db8e4" y="155.286176"/>
      </g>
     </g>
     <g id="text_9">
      <!-- −0.5 -->
      <g transform="translate(7.2 159.085395)scale(0.1 -0.1)">
       <use xlink:href="#DejaVuSans-8722"/>
       <use x="83.789062" xlink:href="#DejaVuSans-48"/>
       <use x="147.412109" xlink:href="#DejaVuSans-46"/>
       <use x="179.199219" xlink:href="#DejaVuSans-53"/>
      </g>
     </g>
    </g>
    <g id="ytick_3">
     <g id="line2d_10">
      <g>
       <use style="stroke:#000000;stroke-width:0.8;" x="38.482813" xlink:href="#m64986db8e4" y="114.59613"/>
      </g>
     </g>
     <g id="text_10">
      <!-- 0.0 -->
      <g transform="translate(15.579688 118.395349)scale(0.1 -0.1)">
       <use xlink:href="#DejaVuSans-48"/>
       <use x="63.623047" xlink:href="#DejaVuSans-46"/>
       <use x="95.410156" xlink:href="#DejaVuSans-48"/>
      </g>
     </g>
    </g>
    <g id="ytick_4">
     <g id="line2d_11">
      <g>
       <use style="stroke:#000000;stroke-width:0.8;" x="38.482813" xlink:href="#m64986db8e4" y="73.906084"/>
      </g>
     </g>
     <g id="text_11">
      <!-- 0.5 -->
      <g transform="translate(15.579688 77.705303)scale(0.1 -0.1)">
       <use xlink:href="#DejaVuSans-48"/>
       <use x="63.623047" xlink:href="#DejaVuSans-46"/>
       <use x="95.410156" xlink:href="#DejaVuSans-53"/>
      </g>
     </g>
    </g>
    <g id="ytick_5">
     <g id="line2d_12">
      <g>
       <use style="stroke:#000000;stroke-width:0.8;" x="38.482813" xlink:href="#m64986db8e4" y="33.216038"/>
      </g>
     </g>
     <g id="text_12">
      <!-- 1.0 -->
      <g transform="translate(15.579688 37.015257)scale(0.1 -0.1)">
       <use xlink:href="#DejaVuSans-49"/>
       <use x="63.623047" xlink:href="#DejaVuSans-46"/>
       <use x="95.410156" xlink:href="#DejaVuSans-48"/>
      </g>
     </g>
    </g>
   </g>
   <g id="line2d_13">
    <path clip-path="url(#p4d80fc4069)" d="M 53.700994 101.377193 
L 55.23046 117.12131 
L 56.759925 113.990028 
L 58.289391 115.976979 
L 59.818856 97.762526 
L 61.348322 121.104135 
L 62.877787 85.754978 
L 64.407253 103.742371 
L 65.936718 92.560206 
L 67.466184 94.812485 
L 68.995649 78.530844 
L 70.525115 104.863289 
L 72.05458 88.414119 
L 73.584046 86.634347 
L 75.113511 72.029165 
L 76.642977 87.983906 
L 78.172442 78.245719 
L 79.701908 81.83035 
L 81.231373 72.222906 
L 82.760839 65.741803 
L 84.290305 77.400022 
L 85.81977 57.127767 
L 87.349236 57.150524 
L 88.878701 58.48806 
L 90.408167 53.38316 
L 91.937632 64.464468 
L 93.467098 58.136943 
L 94.996563 63.040969 
L 96.526029 55.948338 
L 98.055494 47.85011 
L 99.58496 56.249524 
L 101.114425 52.362355 
L 102.643891 53.298082 
L 104.173356 53.217253 
L 105.702822 50.496711 
L 107.232287 43.895543 
L 108.761753 51.707895 
L 111.820684 26.9505 
L 114.879615 40.131422 
L 116.40908 44.953181 
L 117.938546 43.039287 
L 119.468011 22.485525 
L 120.997477 35.2163 
L 122.526942 40.25647 
L 124.056408 33.034027 
L 125.585873 17.083636 
L 127.115339 32.858613 
L 128.644804 28.548009 
L 130.17427 30.936022 
L 131.703735 36.127248 
L 133.233201 42.514217 
L 134.762666 36.08908 
L 136.292132 35.049789 
L 137.821597 28.753393 
L 139.351063 26.950907 
L 140.880528 26.525931 
L 142.409994 32.176991 
L 143.939459 27.768477 
L 145.468925 41.654101 
L 146.99839 25.933876 
L 148.527856 32.641751 
L 150.057321 39.998813 
L 151.586787 34.424332 
L 153.116252 39.911129 
L 154.645718 31.051592 
L 156.175183 28.924766 
L 157.704649 24.605696 
L 159.234114 54.921142 
L 160.76358 56.537741 
L 162.293045 50.183424 
L 163.822511 46.130521 
L 165.351977 41.718514 
L 166.881442 47.755789 
L 168.410908 68.315188 
L 169.940373 55.941483 
L 171.469839 48.358204 
L 172.999304 54.924519 
L 174.52877 52.349081 
L 176.058235 62.163891 
L 177.587701 63.841908 
L 179.117166 62.591072 
L 180.646632 62.719373 
L 182.176097 66.433802 
L 183.705563 69.112575 
L 185.235028 77.61289 
L 186.764494 71.194962 
L 188.293959 75.4254 
L 189.823425 69.408941 
L 191.35289 71.060515 
L 192.882356 81.557848 
L 194.411821 88.394721 
L 195.941287 92.841231 
L 197.470752 86.523925 
L 199.000218 91.690405 
L 200.529683 97.487806 
L 202.059149 96.722548 
L 203.588614 104.526654 
L 205.11808 96.217973 
L 206.647545 107.966324 
L 208.177011 96.800891 
L 209.706476 105.927803 
L 211.235942 106.831245 
L 212.765407 123.025232 
L 214.294873 115.189869 
L 215.824338 112.993332 
L 217.353804 129.228873 
L 218.883269 126.075552 
L 220.412735 126.076596 
L 221.9422 139.938727 
L 223.471666 128.60891 
L 225.001131 126.681941 
L 226.530597 142.939832 
L 228.060062 135.45001 
L 229.589528 151.318255 
L 231.118993 143.266236 
L 232.648459 158.387178 
L 234.177924 138.370723 
L 235.70739 146.39811 
L 237.236855 152.123063 
L 238.766321 160.394056 
L 240.295786 145.847103 
L 241.825252 142.293976 
L 243.354717 175.472141 
L 244.884183 152.29996 
L 246.413648 151.078627 
L 247.943114 163.493108 
L 249.47258 177.875944 
L 251.002045 162.914167 
L 252.531511 173.185892 
L 254.060976 178.349834 
L 255.590442 185.113424 
L 257.119907 172.235997 
L 258.649373 171.821016 
L 260.178838 184.845911 
L 261.708304 176.97464 
L 263.237769 191.902686 
L 264.767235 177.381596 
L 266.2967 184.782303 
L 267.826166 187.869551 
L 269.355631 188.304004 
L 270.885097 181.463495 
L 272.414562 183.418935 
L 273.944028 186.14018 
L 275.473493 190.182592 
L 277.002959 191.454402 
L 278.532424 187.769392 
L 280.06189 191.55271 
L 281.591355 188.461447 
L 283.120821 197.0389 
L 284.650286 214.756364 
L 286.179752 186.841098 
L 287.709217 177.777477 
L 289.238683 192.189774 
L 290.768148 196.729334 
L 292.297614 197.083408 
L 293.827079 196.926662 
L 295.356545 195.72694 
L 296.88601 204.836561 
L 298.415476 199.676897 
L 299.944941 203.272293 
L 301.474407 192.750221 
L 303.003872 196.732608 
L 304.533338 189.759627 
L 306.062803 194.610531 
L 307.592269 184.489684 
L 309.121734 190.035612 
L 310.6512 173.132128 
L 312.180665 205.509961 
L 313.710131 194.390655 
L 316.769062 166.445552 
L 318.298527 187.892762 
L 319.827993 184.297484 
L 321.357458 185.214421 
L 322.886924 171.194556 
L 324.416389 182.964077 
L 325.945855 173.627523 
L 329.004786 186.415295 
L 330.534252 171.871655 
L 332.063717 168.638112 
L 333.593183 160.46563 
L 335.122648 170.09435 
L 336.652114 172.375616 
L 338.181579 160.879795 
L 339.711045 161.562226 
L 341.24051 159.254616 
L 342.769976 160.108317 
L 344.299441 148.004303 
L 345.828907 152.335086 
L 347.358372 137.699725 
L 348.887838 141.980809 
L 350.417303 143.448877 
L 351.946769 159.814868 
L 353.476234 139.398545 
L 355.0057 138.582428 
L 356.535165 133.080707 
L 358.064631 128.83531 
L 358.064631 128.83531 
" style="fill:none;stroke:#1f77b4;stroke-linecap:square;stroke-width:1.5;"/>
   </g>
   <g id="patch_3">
    <path d="M 38.482813 224.64 
L 38.482813 7.2 
" style="fill:none;stroke:#000000;stroke-linecap:square;stroke-linejoin:miter;stroke-width:0.8;"/>
   </g>
   <g id="patch_4">
    <path d="M 373.282813 224.64 
L 373.282813 7.2 
" style="fill:none;stroke:#000000;stroke-linecap:square;stroke-linejoin:miter;stroke-width:0.8;"/>
   </g>
   <g id="patch_5">
    <path d="M 38.482813 224.64 
L 373.282813 224.64 
" style="fill:none;stroke:#000000;stroke-linecap:square;stroke-linejoin:miter;stroke-width:0.8;"/>
   </g>
   <g id="patch_6">
    <path d="M 38.482813 7.2 
L 373.282813 7.2 
" style="fill:none;stroke:#000000;stroke-linecap:square;stroke-linejoin:miter;stroke-width:0.8;"/>
   </g>
  </g>
 </g>
 <defs>
  <clipPath id="p4d80fc4069">
   <rect height="217.44" width="334.8" x="38.482813" y="7.2"/>
  </clipPath>
 </defs>
</svg>
